<?xml version="1.0" encoding="UTF-8"?>
<!DOCTYPE svg PUBLIC "-//W3C//DTD SVG 1.1//EN" "http://www.w3.org/Graphics/SVG/1.1/DTD/svg11.dtd">
<svg version="1.1" xmlns="http://www.w3.org/2000/svg" xmlns:xlink="http://www.w3.org/1999/xlink" x="0" y="0" width="314" height="418" viewBox="0, 0, 314, 418">
  <defs>
    <clipPath id="Clip_1">
      <path d="M311.587,1.362 L311.587,414.427 L2.412,414.427 L2.412,1.362 L311.587,1.362 z"/>
    </clipPath>
  </defs>
  <g id="Layer_1">
    <g clip-path="url(#Clip_1)">
      <path d="M75.04,342.828 L70.62,343.323 L71.831,342.955 L74.797,342.638 C74.876,342.703 74.96,342.764 75.04,342.828 M183.118,245.079 L181.882,245.079 L178.318,243.094 C178.318,243.094 178.234,243.438 178.058,244.008 L177.734,240.585 C206.092,241.594 227.837,230.014 242.794,211.961 L257.536,245.158 C243.783,245.737 224.894,245.583 220.189,245.555 C207.256,245.479 200.048,244.542 183.118,245.079 M294.913,248.556 C288.959,230.861 270.691,198.846 263.292,186.198 C271.792,183.881 276.54,178.178 277.675,168.618 C279.109,156.543 273.316,150.806 266.878,148.099 C266.896,147.857 266.918,147.616 266.935,147.373 C266.979,146.737 267.024,146.099 267.068,145.462 C269.089,140.784 273.548,128.997 278.232,106.978 C283.345,82.936 278.141,44.554 253.449,35.599 L263.008,26.826 C250.819,26.203 246.201,23.536 233.498,18.968 C225.271,15.38 214.696,11.23 191.541,8.675 C168.388,6.119 146.468,19.208 146.468,19.208 C146.468,19.208 140.546,19.494 132.936,21.912 C105.736,23.825 91.698,61.242 91.441,86.365 C91.176,112.207 93.564,124.832 94.304,128.104 C87.948,129.6 81.882,134.042 80.556,145.21 C79.189,156.725 84.179,164.052 95.677,167.993 C101.297,202.143 122.507,231.615 162.913,238.962 L162.373,244.668 C162.046,243.698 161.9,243.094 161.9,243.094 L158.335,245.079 L157.376,245.079 C157.353,245.084 128.245,251.405 121.255,255.197 C120.167,255.786 107.619,271.414 94.943,288.458 C93.385,288.443 91.824,288.429 90.276,288.418 C91.998,281.402 88.908,273.005 82.911,266.071 C72.567,254.096 46.049,268.182 41.901,276.053 C37.748,283.931 38.266,283.868 41.416,297.434 C41.427,297.48 41.442,297.521 41.452,297.566 C28.794,302.814 15.657,308.515 15.657,308.515 L20.28,358.56 L70.617,343.324 L79.684,349.325 L87.496,348.335 C88.667,348.399 89.751,348.273 90.705,347.929 L112.118,345.219 L118.625,337.955 L99.182,340.129 C99.214,340.094 99.247,340.058 99.28,340.022 L123.986,337.382 L115.951,436.549 C115.951,436.549 117.617,436.762 120.34,437.078 L124.546,564.81 C124.5,593.2 127.821,657.577 127.821,657.577 L131.041,662.838 L127.19,673.555 L136.158,673.604 C133.665,674.487 131.409,675.678 129.693,677.291 C123.052,683.528 127.147,685.527 127.147,685.527 L158.993,685.527 L158.993,673.728 L160.977,673.739 L168.96,465.522 L170.366,463.966 L171.771,465.522 L179.755,673.739 L181.738,673.728 L181.738,685.527 L213.585,685.527 C213.585,685.527 217.68,683.528 211.039,677.291 C209.323,675.678 207.068,674.487 204.575,673.604 L213.541,673.555 L209.691,662.838 L212.91,657.577 C212.91,657.577 216.232,593.2 216.187,564.81 L220.39,437.117 C223.304,436.779 225.103,436.549 225.103,436.549 L213.403,292.158 C214.939,291.633 216.665,291.042 218.552,290.395 C218.552,290.395 255.092,283.584 265.546,279.334 C277.337,274.541 302.316,270.555 294.913,248.556" fill="#797979"/>
      <path d="M75.04,342.828 L70.62,343.323 L71.831,342.955 L74.797,342.638 C74.876,342.703 74.96,342.764 75.04,342.828 z M183.118,245.079 L181.882,245.079 L178.318,243.094 C178.318,243.094 178.234,243.438 178.058,244.008 L177.734,240.585 C206.092,241.594 227.837,230.014 242.794,211.961 L257.536,245.158 C243.783,245.737 224.894,245.583 220.189,245.555 C207.256,245.479 200.048,244.542 183.118,245.079 z M294.913,248.556 C288.959,230.861 270.691,198.846 263.292,186.198 C271.792,183.881 276.54,178.178 277.675,168.618 C279.109,156.543 273.316,150.806 266.878,148.099 C266.896,147.857 266.918,147.616 266.935,147.373 C266.979,146.737 267.024,146.099 267.068,145.462 C269.089,140.784 273.548,128.997 278.232,106.978 C283.345,82.936 278.141,44.554 253.449,35.599 L263.008,26.826 C250.819,26.203 246.201,23.536 233.498,18.968 C225.271,15.38 214.696,11.23 191.541,8.675 C168.388,6.119 146.468,19.208 146.468,19.208 C146.468,19.208 140.546,19.494 132.936,21.912 C105.736,23.825 91.698,61.242 91.441,86.365 C91.176,112.207 93.564,124.832 94.304,128.104 C87.948,129.6 81.882,134.042 80.556,145.21 C79.189,156.725 84.179,164.052 95.677,167.993 C101.297,202.143 122.507,231.615 162.913,238.962 L162.373,244.668 C162.046,243.698 161.9,243.094 161.9,243.094 L158.335,245.079 L157.376,245.079 C157.353,245.084 128.245,251.405 121.255,255.197 C120.167,255.786 107.619,271.414 94.943,288.458 C93.385,288.443 91.824,288.429 90.276,288.418 C91.998,281.402 88.908,273.005 82.911,266.071 C72.567,254.096 46.049,268.182 41.901,276.053 C37.748,283.931 38.266,283.868 41.416,297.434 C41.427,297.48 41.442,297.521 41.452,297.566 C28.794,302.814 15.657,308.515 15.657,308.515 L20.28,358.56 L70.617,343.324 L79.684,349.325 L87.496,348.335 C88.667,348.399 89.751,348.273 90.705,347.929 L112.118,345.219 L118.625,337.955 L99.182,340.129 C99.214,340.094 99.247,340.058 99.28,340.022 L123.986,337.382 L115.951,436.549 C115.951,436.549 117.617,436.762 120.34,437.078 L124.546,564.81 C124.5,593.2 127.821,657.577 127.821,657.577 L131.041,662.838 L127.19,673.555 L136.158,673.604 C133.665,674.487 131.409,675.678 129.693,677.291 C123.052,683.528 127.147,685.527 127.147,685.527 L158.993,685.527 L158.993,673.728 L160.977,673.739 L168.96,465.522 L170.366,463.966 L171.771,465.522 L179.755,673.739 L181.738,673.728 L181.738,685.527 L213.585,685.527 C213.585,685.527 217.68,683.528 211.039,677.291 C209.323,675.678 207.068,674.487 204.575,673.604 L213.541,673.555 L209.691,662.838 L212.91,657.577 C212.91,657.577 216.232,593.2 216.187,564.81 L220.39,437.117 C223.304,436.779 225.103,436.549 225.103,436.549 L213.403,292.158 C214.939,291.633 216.665,291.042 218.552,290.395 C218.552,290.395 255.092,283.584 265.546,279.334 C277.337,274.541 302.316,270.555 294.913,248.556 z" fill-opacity="0" stroke="#797979" stroke-width="8" stroke-linecap="round" stroke-linejoin="round"/>
      <path d="M216.187,564.81 L220.659,428.959 L220.337,398.802 L120.394,398.802 L120.073,428.959 L124.546,564.81 C124.5,593.2 127.821,657.577 127.821,657.577 L131.041,662.838 L127.19,673.555 L160.977,673.739 L168.96,465.522 L170.366,463.966 L171.771,465.522 L179.755,673.739 L213.541,673.555 L209.691,662.838 L212.91,657.577 C212.91,657.577 216.232,593.2 216.187,564.81" fill="#CFCFCF"/>
      <path d="M216.187,564.81 L220.659,428.959 L220.337,398.802 L120.394,398.802 L120.073,428.959 L124.546,564.81 C124.5,593.2 127.821,657.577 127.821,657.577 L131.041,662.838 L127.19,673.555 L160.977,673.739 L168.96,465.522 L170.366,463.966 L171.771,465.522 L179.755,673.739 L213.541,673.555 L209.691,662.838 L212.91,657.577 C212.91,657.577 216.232,593.2 216.187,564.81 z" fill-opacity="0" stroke="#797979" stroke-width="4" stroke-linecap="round" stroke-linejoin="round"/>
      <path d="M253.449,35.599 L263.008,26.826 C250.819,26.203 246.201,23.536 233.498,18.968 C225.271,15.38 214.696,11.23 191.541,8.675 C168.388,6.119 146.468,19.208 146.468,19.208 C146.468,19.208 140.546,19.494 132.936,21.912 C105.736,23.825 91.698,61.242 91.441,86.365 C91.128,116.901 94.519,128.987 94.519,128.987 L94.299,131.475 L106.666,124.548 L181.135,130.218 L255.046,140.922 L265.606,150.379 L265.934,147.904 C265.934,147.904 271.878,136.847 278.232,106.978 C283.345,82.936 278.141,44.554 253.449,35.599" fill="#A48C7A"/>
      <path d="M253.449,35.599 L263.008,26.826 C250.819,26.203 246.201,23.536 233.498,18.968 C225.271,15.38 214.696,11.23 191.541,8.675 C168.388,6.119 146.468,19.208 146.468,19.208 C146.468,19.208 140.546,19.494 132.936,21.912 C105.736,23.825 91.698,61.242 91.441,86.365 C91.128,116.901 94.519,128.987 94.519,128.987 L94.299,131.475 L106.666,124.548 L181.135,130.218 L255.046,140.922 L265.606,150.379 L265.934,147.904 C265.934,147.904 271.878,136.847 278.232,106.978 C283.345,82.936 278.141,44.554 253.449,35.599 z" fill-opacity="0" stroke="#797979" stroke-width="4" stroke-linecap="round" stroke-linejoin="round"/>
      <path d="M219.534,255.197 C212.539,251.403 183.41,245.079 183.41,245.079 L157.671,245.079 C157.671,245.079 128.54,251.403 121.547,255.197 L131.65,296.805 L209.43,296.805 z" fill="#A3ACBE"/>
      <path d="M219.534,255.197 C212.539,251.403 183.41,245.079 183.41,245.079 L157.671,245.079 C157.671,245.079 128.54,251.403 121.547,255.197 L131.65,296.805 L209.43,296.805 L219.534,255.197 z" fill-opacity="0" stroke="#797979" stroke-width="4" stroke-linecap="round" stroke-linejoin="round"/>
      <path d="M183.118,245.079 L178.159,245.079 L176.737,230.047 L170.247,225.827 L163.757,230.047 L162.334,245.079 L157.376,245.079 C153.527,252.58 165.138,260.075 165.138,260.075 L170.247,267.43 L175.357,260.075 C175.357,260.075 186.968,252.58 183.118,245.079" fill="#FFEFD9"/>
      <path d="M183.118,245.079 L178.159,245.079 L176.737,230.047 L170.247,225.827 L163.757,230.047 L162.334,245.079 L157.376,245.079 C153.527,252.58 165.138,260.075 165.138,260.075 L170.247,267.43 L175.357,260.075 C175.357,260.075 186.968,252.58 183.118,245.079 z" fill-opacity="0" stroke="#797979" stroke-width="4" stroke-linecap="round" stroke-linejoin="round"/>
      <path d="M157.377,245.079 C157.377,245.079 128.248,251.403 121.255,255.197 C119.005,256.417 67.695,322.008 67.695,331.342 C67.695,340.676 86.166,352.556 92.498,346.889 C106.418,334.433 134.973,294.64 134.973,294.64" fill="#A3ACBE"/>
      <path d="M157.377,245.079 C157.377,245.079 128.248,251.403 121.255,255.197 C119.005,256.417 67.695,322.008 67.695,331.342 C67.695,340.676 86.166,352.556 92.498,346.889 C106.418,334.433 134.973,294.64 134.973,294.64" fill-opacity="0" stroke="#797979" stroke-width="4" stroke-linecap="round" stroke-linejoin="round"/>
      <path d="M183.118,245.079 C200.048,244.542 207.256,245.479 220.189,245.555 C226.779,245.594 261.198,245.88 270.351,244.055 C279.505,242.229 279.95,261.365 277.968,268.418 C277.373,270.537 206.106,294.64 206.106,294.64" fill="#A3ACBE"/>
      <path d="M183.118,245.079 C200.048,244.542 207.256,245.479 220.189,245.555 C226.779,245.594 261.198,245.88 270.351,244.055 C279.505,242.229 279.95,261.365 277.968,268.418 C277.373,270.537 206.106,294.64 206.106,294.64" fill-opacity="0" stroke="#797979" stroke-width="4" stroke-linecap="round" stroke-linejoin="round"/>
      <path d="M258.656,247.678 L236.563,197.929 L260.128,180.845 C260.128,180.845 287.38,226.166 294.913,248.556 C302.316,270.555 277.337,274.541 265.546,279.334 C255.092,283.584 218.552,290.395 218.552,290.395" fill="#A3ACBE"/>
      <path d="M258.656,247.678 L236.563,197.929 L260.128,180.845 C260.128,180.845 287.38,226.166 294.913,248.556 C302.316,270.555 277.337,274.541 265.546,279.334 C255.092,283.584 218.552,290.395 218.552,290.395" fill-opacity="0" stroke="#797979" stroke-width="4" stroke-linecap="round" stroke-linejoin="round"/>
      <path d="M213.374,291.805 L225.103,436.549 C225.103,436.549 178.986,442.443 174.755,438.423 C170.527,434.404 170.527,408.09 170.527,408.09 C170.527,408.09 170.527,434.404 166.296,438.423 C162.068,442.443 115.951,436.549 115.951,436.549 L127.679,291.805" fill="#A3ACBE"/>
      <path d="M213.374,291.805 L225.103,436.549 C225.103,436.549 178.986,442.443 174.755,438.423 C170.527,434.404 170.527,408.09 170.527,408.09 C170.527,408.09 170.527,434.404 166.296,438.423 C162.068,442.443 115.951,436.549 115.951,436.549 L127.679,291.805" fill-opacity="0" stroke="#797979" stroke-width="4" stroke-linecap="round" stroke-linejoin="round"/>
      <path d="M170.234,319.031 L189.706,253.822 L170.109,255.675 L150.763,253.822 z" fill="#FFFFFF"/>
      <path d="M170.234,319.031 L189.706,253.822 L170.109,255.675 L150.763,253.822 L170.234,319.031 z" fill-opacity="0" stroke="#797979" stroke-width="4" stroke-linecap="round" stroke-linejoin="round"/>
      <path d="M178.318,243.094 C178.318,243.094 176.396,251.241 170.109,256.697 C170.109,256.697 175.872,254.042 177.968,255.95 C180.064,257.859 188.449,263.107 188.449,263.107 L184.255,246.401 z" fill="#FFFFFF"/>
      <path d="M178.318,243.094 C178.318,243.094 176.396,251.241 170.109,256.697 C170.109,256.697 175.872,254.042 177.968,255.95 C180.064,257.859 188.449,263.107 188.449,263.107 L184.255,246.401 L178.318,243.094 z" fill-opacity="0" stroke="#797979" stroke-width="4" stroke-linecap="round" stroke-linejoin="round"/>
      <path d="M161.9,243.094 C161.9,243.094 163.822,251.241 170.109,256.697 C170.109,256.697 164.345,254.042 162.249,255.95 C160.154,257.859 151.771,263.107 151.771,263.107 L155.962,246.401 z" fill="#FFFFFF"/>
      <path d="M161.9,243.094 C161.9,243.094 163.822,251.241 170.109,256.697 C170.109,256.697 164.345,254.042 162.249,255.95 C160.154,257.859 151.771,263.107 151.771,263.107 L155.962,246.401 L161.9,243.094 z" fill-opacity="0" stroke="#797979" stroke-width="4" stroke-linecap="round" stroke-linejoin="round"/>
      <path d="M123.884,384.268 L151.283,387.258 C151.283,387.258 150.044,396.026 145.751,396.8 C141.458,397.575 124.558,394.841 123.214,392.796 C121.872,390.751 123.884,384.268 123.884,384.268" fill="#A3ACBE"/>
      <path d="M123.884,384.268 L151.283,387.258 C151.283,387.258 150.044,396.026 145.751,396.8 C141.458,397.575 124.558,394.841 123.214,392.796 C121.872,390.751 123.884,384.268 123.884,384.268 z" fill-opacity="0" stroke="#797979" stroke-width="4" stroke-linecap="round" stroke-linejoin="round"/>
      <path d="M216.585,384.268 L189.189,387.258 C189.189,387.258 190.425,396.026 194.72,396.8 C199.013,397.575 215.913,394.841 217.255,392.796 C218.599,390.751 216.585,384.268 216.585,384.268" fill="#A3ACBE"/>
      <path d="M216.585,384.268 L189.189,387.258 C189.189,387.258 190.425,396.026 194.72,396.8 C199.013,397.575 215.913,394.841 217.255,392.796 C218.599,390.751 216.585,384.268 216.585,384.268 z" fill-opacity="0" stroke="#797979" stroke-width="4" stroke-linecap="round" stroke-linejoin="round"/>
      <path d="M174.96,265.798 L169.943,265.439 L164.925,265.798 L161.581,299.228 L169.943,322.909 L178.304,299.228 z" fill="#C8808D"/>
      <path d="M174.96,265.798 L169.943,265.439 L164.925,265.798 L161.581,299.228 L169.943,322.909 L178.304,299.228 L174.96,265.798 z" fill-opacity="0" stroke="#797979" stroke-width="4" stroke-linecap="round" stroke-linejoin="round"/>
      <path d="M164.327,255.666 L164.968,265.166 C164.968,265.166 167.562,267.041 169.943,267.041 C172.324,267.041 174.917,265.166 174.917,265.166 L175.556,255.666 z" fill="#C8808D"/>
      <path d="M164.327,255.666 L164.968,265.166 C164.968,265.166 167.562,267.041 169.943,267.041 C172.324,267.041 174.917,265.166 174.917,265.166 L175.556,255.666 L164.327,255.666 z" fill-opacity="0" stroke="#797979" stroke-width="4" stroke-linecap="round" stroke-linejoin="round"/>
      <path d="M155.593,245.566 L152.245,246.449 L144.609,257.105 L152.609,263.105 L144.275,267.105 L169.943,324.632 z" fill="#A3ACBE"/>
      <path d="M155.593,245.566 L152.245,246.449 L144.609,257.105 L152.609,263.105 L144.275,267.105 L169.943,324.632 L155.593,245.566 z" fill-opacity="0" stroke="#797979" stroke-width="4" stroke-linecap="round" stroke-linejoin="round"/>
      <path d="M184.624,245.566 L187.972,246.449 L195.609,257.105 L187.609,263.105 L195.943,267.105 L170.275,324.632 z" fill="#A3ACBE"/>
      <path d="M184.624,245.566 L187.972,246.449 L195.609,257.105 L187.609,263.105 L195.943,267.105 L170.275,324.632 L184.624,245.566 z" fill-opacity="0" stroke="#797979" stroke-width="4" stroke-linecap="round" stroke-linejoin="round"/>
      <path d="M197.273,301.611 L189.824,302.525 L189.824,310.982 C189.824,314.982 197.273,318.525 197.273,318.525 C197.273,318.525 204.72,314.982 204.72,310.982 L204.72,302.525 z" fill="#EFF0AF"/>
      <path d="M197.273,301.611 L189.824,302.525 L189.824,310.982 C189.824,314.982 197.273,318.525 197.273,318.525 C197.273,318.525 204.72,314.982 204.72,310.982 L204.72,302.525 L197.273,301.611 z" fill-opacity="0" stroke="#797979" stroke-width="4" stroke-linecap="round" stroke-linejoin="round"/>
      <path d="M173.734,334.631 C173.734,336.565 172.167,338.131 170.234,338.131 C168.3,338.131 166.734,336.565 166.734,334.631 C166.734,332.698 168.3,331.131 170.234,331.131 C172.167,331.131 173.734,332.698 173.734,334.631" fill="#EFF0AF"/>
      <path d="M173.734,334.631 C173.734,336.565 172.167,338.131 170.234,338.131 C168.3,338.131 166.734,336.565 166.734,334.631 C166.734,332.698 168.3,331.131 170.234,331.131 C172.167,331.131 173.734,332.698 173.734,334.631 z" fill-opacity="0" stroke="#797979" stroke-width="4" stroke-linecap="round" stroke-linejoin="round"/>
      <path d="M173.734,355.756 C173.734,357.69 172.167,359.256 170.234,359.256 C168.3,359.256 166.734,357.69 166.734,355.756 C166.734,353.823 168.3,352.256 170.234,352.256 C172.167,352.256 173.734,353.823 173.734,355.756" fill="#EFF0AF"/>
      <path d="M173.734,355.756 C173.734,357.69 172.167,359.256 170.234,359.256 C168.3,359.256 166.734,357.69 166.734,355.756 C166.734,353.823 168.3,352.256 170.234,352.256 C172.167,352.256 173.734,353.823 173.734,355.756 z" fill-opacity="0" stroke="#797979" stroke-width="4" stroke-linecap="round" stroke-linejoin="round"/>
      <path d="M173.734,376.881 C173.734,378.815 172.167,380.381 170.234,380.381 C168.3,380.381 166.734,378.815 166.734,376.881 C166.734,374.948 168.3,373.381 170.234,373.381 C172.167,373.381 173.734,374.948 173.734,376.881" fill="#EFF0AF"/>
      <path d="M173.734,376.881 C173.734,378.815 172.167,380.381 170.234,380.381 C168.3,380.381 166.734,378.815 166.734,376.881 C166.734,374.948 168.3,373.381 170.234,373.381 C172.167,373.381 173.734,374.948 173.734,376.881 z" fill-opacity="0" stroke="#797979" stroke-width="4" stroke-linecap="round" stroke-linejoin="round"/>
      <path d="M110.817,129.03 C110.817,129.03 83.557,119.943 80.556,145.21 C78.791,160.072 87.609,167.962 107.355,170.595" fill="#FFEFD9"/>
      <path d="M110.817,129.03 C110.817,129.03 83.557,119.943 80.556,145.21 C78.791,160.072 87.609,167.962 107.355,170.595" fill-opacity="0" stroke="#797979" stroke-width="4" stroke-linecap="round" stroke-linejoin="round"/>
      <path d="M91.043,147.841 C91.043,147.841 94.906,146.585 98.395,147.022" fill="#FFEFD9"/>
      <path d="M91.043,147.841 C91.043,147.841 94.906,146.585 98.395,147.022" fill-opacity="0" stroke="#797979" stroke-width="4" stroke-linecap="round" stroke-linejoin="round"/>
      <path d="M252.044,145.801 C252.044,145.801 280.675,143.353 277.675,168.618 C275.91,183.481 265.487,189.086 245.674,187.022" fill="#FFEFD9"/>
      <path d="M252.044,145.801 C252.044,145.801 280.675,143.353 277.675,168.618 C275.91,183.481 265.487,189.086 245.674,187.022" fill-opacity="0" stroke="#797979" stroke-width="4" stroke-linecap="round" stroke-linejoin="round"/>
      <path d="M266.863,168.721 C266.863,168.721 263.4,166.595 259.907,166.201" fill="#FFEFD9"/>
      <path d="M266.863,168.721 C266.863,168.721 263.4,166.595 259.907,166.201" fill-opacity="0" stroke="#797979" stroke-width="4" stroke-linecap="round" stroke-linejoin="round"/>
      <path d="M266.935,147.373 C263.407,198.563 230.288,247.179 169.257,239.932 C108.511,232.716 87.612,178.181 95.851,127.788 C103.88,78.7 109.186,29.932 193.013,39.887 C276.839,49.841 270.34,97.985 266.935,147.373" fill="#FFEFD9"/>
      <path d="M266.935,147.373 C263.407,198.563 230.288,247.179 169.257,239.932 C108.511,232.716 87.612,178.181 95.851,127.788 C103.88,78.7 109.186,29.932 193.013,39.887 C276.839,49.841 270.34,97.985 266.935,147.373 z" fill-opacity="0" stroke="#797979" stroke-width="4" stroke-linecap="round" stroke-linejoin="round"/>
      <path d="M132.788,47.147 C143.23,65.402 186.57,89.698 198.911,92.405 L193.771,77.71 C193.771,77.71 233.777,104.299 248.556,110.466 L249.929,96.8 L263.212,115.933 C263.599,104.864 278.166,99.732 264.744,62.904 C257.851,43.999 224.089,26.293 190.673,24.54 C157.255,22.788 132.788,47.147 132.788,47.147" fill="#A48C7A"/>
      <path d="M132.788,47.147 C143.23,65.402 186.57,89.698 198.911,92.405 L193.771,77.71 C193.771,77.71 233.777,104.299 248.556,110.466 L249.929,96.8 L263.212,115.933 C263.212,115.933 269.1,99.016 269.005,91.02" fill="#A48C7A"/>
      <path d="M132.788,47.147 C143.23,65.402 186.57,89.698 198.911,92.405 L193.771,77.71 C193.771,77.71 233.777,104.299 248.556,110.466 L249.929,96.8 L263.212,115.933 C263.212,115.933 269.1,99.016 269.005,91.02" fill-opacity="0" stroke="#797979" stroke-width="4" stroke-linecap="round" stroke-linejoin="round"/>
      <path d="M96.969,111.159 C96.969,111.159 132.935,69.403 140.177,55.602 L140.84,37.158 C140.84,37.158 86.36,62.668 96.969,111.159" fill="#A48C7A"/>
      <path d="M96.969,111.159 C96.969,111.159 132.935,69.403 140.177,55.602" fill="#9C8A76"/>
      <path d="M96.969,111.159 C96.969,111.159 132.935,69.403 140.177,55.602" fill-opacity="0" stroke="#797979" stroke-width="4" stroke-linecap="round" stroke-linejoin="round"/>
      <path d="M224.559,141.263 C223.552,148.823 220.22,154.617 217.117,154.202 C214.014,153.789 212.315,147.325 213.322,139.765 C214.329,132.205 217.66,126.412 220.763,126.825 C223.867,127.239 225.566,133.701 224.559,141.263" fill="#797979"/>
      <path d="M141.467,130.193 C140.46,137.753 142.159,144.216 145.263,144.63 C148.366,145.043 151.698,139.25 152.705,131.69 C153.712,124.13 152.013,117.666 148.91,117.253 C145.807,116.839 142.474,122.633 141.467,130.193" fill="#797979"/>
      <path d="M173.242,179.41 C173.242,179.41 171.127,185.182 176.376,185.546" fill-opacity="0" stroke="#797979" stroke-width="4" stroke-linecap="round" stroke-linejoin="round"/>
      <path d="M151.681,212.605 C151.681,212.605 161.345,202.458 173.901,204.131" fill-opacity="0" stroke="#797979" stroke-width="4" stroke-linecap="round" stroke-linejoin="round"/>
      <path d="M193.127,218.126 C193.127,218.126 186.456,205.804 173.901,204.131" fill-opacity="0" stroke="#797979" stroke-width="4" stroke-linecap="round" stroke-linejoin="round"/>
      <path d="M139.895,97.102 C144.52,97.718 155.357,97.144 159.674,95.029" fill-opacity="0" stroke="#797979" stroke-width="4" stroke-linecap="round" stroke-linejoin="round"/>
      <path d="M234.74,109.737 C230.115,109.12 219.805,105.73 216.193,102.558" fill-opacity="0" stroke="#797979" stroke-width="4" stroke-linecap="round" stroke-linejoin="round"/>
      <path d="M20.28,358.56 L71.831,342.955 L129.53,336.789 L69.606,326.138 z" fill="#AF9C7F"/>
      <path d="M20.28,358.56 L71.831,342.955 L129.53,336.789 L69.606,326.138 L20.28,358.56 z" fill-opacity="0" stroke="#797979" stroke-width="4" stroke-linecap="round" stroke-linejoin="round"/>
      <path d="M20.28,358.56 C20.28,358.56 63.817,336.782 69.618,335.983 C75.423,335.185 129.53,336.789 129.53,336.789 L124.907,288.987 C124.907,288.987 70.22,287.614 63.734,289.036 C57.246,290.466 15.657,308.515 15.657,308.515 z" fill="#AF9C7F"/>
      <path d="M20.28,358.56 C20.28,358.56 63.817,336.782 69.618,335.983 C75.423,335.185 129.53,336.789 129.53,336.789 L124.907,288.987 C124.907,288.987 70.22,287.614 63.734,289.036 C57.246,290.466 15.657,308.515 15.657,308.515 L20.28,358.56 z" fill-opacity="0" stroke="#797979" stroke-width="4" stroke-linecap="round" stroke-linejoin="round"/>
      <path d="M64.589,296.551 L69.309,328.319" fill="#AF9C7F"/>
      <path d="M64.589,296.551 L69.309,328.319" fill-opacity="0" stroke="#797979" stroke-width="4" stroke-linecap="round" stroke-linejoin="round"/>
      <path d="M70.616,343.323 L79.684,349.325 L112.118,345.219 L118.625,337.955 z" fill="#AF9C7F"/>
      <path d="M70.616,343.323 L79.684,349.325 L112.118,345.219 L118.625,337.955 L70.616,343.323 z" fill-opacity="0" stroke="#797979" stroke-width="4" stroke-linecap="round" stroke-linejoin="round"/>
      <path d="M41.901,276.053 C46.049,268.182 72.567,254.096 82.911,266.071 C93.264,278.044 94.988,294.386 78.149,300.429 C61.316,306.469 44.494,310.717 41.416,297.434 C38.266,283.868 37.748,283.931 41.901,276.053" fill="#FCEDD7"/>
      <path d="M41.901,276.053 C46.049,268.182 72.567,254.096 82.911,266.071 C93.264,278.044 94.988,294.386 78.149,300.429 C61.316,306.469 44.494,310.717 41.416,297.434 C38.266,283.868 37.748,283.931 41.901,276.053 z" fill-opacity="0" stroke="#797979" stroke-width="4" stroke-linecap="round" stroke-linejoin="round"/>
      <path d="M64.655,381.491 L65.985,384.346 L64.238,384.19 z" fill="#FCEDD7"/>
      <path d="M64.655,381.491 L65.985,384.346 L64.238,384.19 L64.655,381.491 z" fill-opacity="0" stroke="#797979" stroke-width="4" stroke-linecap="round" stroke-linejoin="round"/>
      <path d="M72.198,359.904 L72.198,363.215" fill="#FCEDD7"/>
      <path d="M72.198,359.904 L72.198,363.215" fill-opacity="0" stroke="#797979" stroke-width="4" stroke-linecap="round" stroke-linejoin="round"/>
      <path d="M90.729,366.418 L90.957,367.08" fill="#FCEDD7"/>
      <path d="M90.729,366.418 L90.957,367.08" fill-opacity="0" stroke="#797979" stroke-width="4" stroke-linecap="round" stroke-linejoin="round"/>
      <path d="M82.321,397.621 L82.868,399.975" fill="#FCEDD7"/>
      <path d="M82.321,397.621 L82.868,399.975" fill-opacity="0" stroke="#797979" stroke-width="4" stroke-linecap="round" stroke-linejoin="round"/>
      <path d="M30.534,276.666 C28.741,266.637 37.201,251.333 51.201,251.333" fill-opacity="0" stroke="#797979" stroke-width="4" stroke-linecap="round" stroke-linejoin="round"/>
      <path d="M22.534,265.999 C20.407,255.97 30.407,243.97 39.868,244.666" fill-opacity="0" stroke="#797979" stroke-width="4" stroke-linecap="round" stroke-linejoin="round"/>
    </g>
  </g>
</svg>
